<svg xmlns="http://www.w3.org/2000/svg" width="44.049" height="44.049" viewBox="0 0 44.049 44.049">
  <path id="bag" d="M43.153,14.835H36.86v-.442A12.106,12.106,0,0,0,24.716,2.25h-.787a12.19,12.19,0,0,0-12.24,12.144v.442H5.4L2.25,46.3H46.3Zm-28.317-.442a9.06,9.06,0,0,1,9.1-9h.787a8.977,8.977,0,0,1,9,9v.442H14.835ZM5.77,43.153,8.218,17.982h3.471V21.55a3.146,3.146,0,1,0,3.146,0V17.982H33.714V21.55a3.146,3.146,0,1,0,3.146,0V17.982h3.481l2.449,25.171Z" transform="translate(-2.25 -2.25)" fill="#111"/>
</svg>
