<svg aria-hidden="true" style="position: absolute; width: 0; height: 0; overflow: hidden;" version="1.1" xmlns="http://www.w3.org/2000/svg" xmlns:xlink="http://www.w3.org/1999/xlink">
<defs>
<symbol id="icon-Menu-hamburguer" viewBox="0 0 44 32">
<path d="M42.6 4.4h-40c-1.2 0-2-0.8-2-2s0.8-2 2-2h40c1.2 0 2 0.8 2 2s-0.8 2-2 2z"></path>
<path d="M42.6 18.4h-40c-1.2 0-2-0.8-2-2s0.8-2 2-2h40c1.2 0 2 0.8 2 2s-0.8 2-2 2z"></path>
<path d="M24.6 32.4h-22c-1.2 0-2-0.8-2-2s0.8-2 2-2h22c1.2 0 2 0.8 2 2s-0.8 2-2 2z"></path>
</symbol>
<symbol id="icon-cart" viewBox="0 0 32 32">
<path d="M12.8 32c-1.765 0-3.2-1.435-3.2-3.2s1.435-3.2 3.2-3.2 3.2 1.435 3.2 3.2-1.435 3.2-3.2 3.2zM12.8 27.2c-0.882 0-1.6 0.718-1.6 1.6s0.718 1.6 1.6 1.6 1.6-0.718 1.6-1.6-0.718-1.6-1.6-1.6z"></path>
<path d="M24 32c-1.765 0-3.2-1.435-3.2-3.2s1.435-3.2 3.2-3.2 3.2 1.435 3.2 3.2-1.435 3.2-3.2 3.2zM24 27.2c-0.882 0-1.6 0.718-1.6 1.6s0.718 1.6 1.6 1.6 1.6-0.718 1.6-1.6-0.718-1.6-1.6-1.6z"></path>
<path d="M28.062 7.147c-0.402-0.475-1.008-0.747-1.662-0.747h-19.589l-0.158-0.954c-0.21-1.259-1.374-2.246-2.653-2.246h-1.6c-0.442 0-0.8 0.358-0.8 0.8s0.358 0.8 0.8 0.8h1.6c0.491 0 0.994 0.426 1.074 0.91l2.674 16.043c0.21 1.259 1.374 2.246 2.653 2.246h16c0.442 0 0.8-0.358 0.8-0.8s-0.358-0.8-0.8-0.8h-16c-0.491 0-0.994-0.426-1.074-0.91l-0.395-2.368 15.944-1.387c1.24-0.107 2.373-1.154 2.578-2.382l1.074-6.443c0.107-0.646-0.061-1.29-0.462-1.763zM26.947 8.646l-1.074 6.443c-0.085 0.506-0.626 1.006-1.138 1.051l-16.069 1.397-1.59-9.539h19.322c0.187 0 0.344 0.064 0.442 0.181s0.136 0.282 0.106 0.466z"></path>
</symbol>
<symbol id="icon-cross" viewBox="0 0 32 32">
<path d="M17.131 16.8l9.034-9.034c0.312-0.312 0.312-0.819 0-1.131s-0.819-0.312-1.131 0l-9.034 9.034-9.034-9.034c-0.312-0.312-0.819-0.312-1.131 0s-0.312 0.819 0 1.131l9.034 9.034-9.034 9.034c-0.312 0.312-0.312 0.819 0 1.131 0.157 0.157 0.362 0.234 0.566 0.234s0.41-0.078 0.566-0.234l9.034-9.034 9.034 9.034c0.157 0.157 0.362 0.234 0.566 0.234s0.41-0.078 0.566-0.234c0.312-0.312 0.312-0.819 0-1.131l-9.034-9.034z"></path>
</symbol>
<symbol id="icon-heart" viewBox="0 0 32 32">
<path d="M15.2 30.4c-0.134 0-0.267-0.034-0.389-0.101-0.15-0.083-3.722-2.082-7.347-5.355-2.146-1.936-3.858-3.917-5.093-5.888-1.574-2.514-2.371-5.022-2.371-7.456 0-4.632 3.768-8.4 8.4-8.4 1.568 0 3.234 0.587 4.69 1.654 0.851 0.624 1.576 1.376 2.11 2.174 0.534-0.798 1.259-1.55 2.11-2.174 1.456-1.067 3.122-1.654 4.69-1.654 4.632 0 8.4 3.768 8.4 8.4 0 2.434-0.798 4.942-2.371 7.456-1.234 1.971-2.947 3.952-5.091 5.888-3.626 3.274-7.197 5.272-7.347 5.355-0.122 0.067-0.254 0.101-0.389 0.101zM8.4 4.8c-3.749 0-6.8 3.051-6.8 6.8 0 4.864 3.76 9.283 6.914 12.136 2.816 2.547 5.67 4.333 6.686 4.939 1.016-0.606 3.87-2.392 6.686-4.939 3.154-2.851 6.914-7.272 6.914-12.136 0-3.749-3.051-6.8-6.8-6.8-2.725 0-5.371 2.242-6.042 4.253-0.109 0.326-0.414 0.547-0.758 0.547s-0.65-0.221-0.758-0.547c-0.67-2.011-3.317-4.253-6.042-4.253z"></path>
</symbol>
<symbol id="icon-magnifier" viewBox="0 0 32 32">
<path d="M30.19 30.659l-9.509-10.374c2.142-2.242 3.32-5.173 3.32-8.285 0-3.205-1.248-6.219-3.515-8.485s-5.28-3.515-8.485-3.515-6.219 1.248-8.485 3.515-3.515 5.28-3.515 8.485 1.248 6.219 3.515 8.485 5.28 3.515 8.485 3.515c2.762 0 5.379-0.926 7.501-2.632l9.509 10.373c0.158 0.173 0.373 0.259 0.59 0.259 0.194 0 0.387-0.069 0.541-0.21 0.326-0.299 0.347-0.805 0.050-1.13zM1.6 12c0-5.734 4.666-10.4 10.4-10.4s10.4 4.666 10.4 10.4-4.666 10.4-10.4 10.4-10.4-4.666-10.4-10.4z"></path>
</symbol>
<symbol id="icon-phone-handset" viewBox="0 0 32 32">
<path d="M25.6 32c-2.834 0-5.848-0.803-8.96-2.387-2.869-1.461-5.702-3.552-8.195-6.048s-4.581-5.333-6.040-8.203c-1.581-3.114-2.384-6.128-2.384-8.962 0-1.837 1.712-3.611 2.446-4.288 1.058-0.974 2.722-2.112 3.931-2.112 0.602 0 1.306 0.394 2.219 1.238 0.68 0.63 1.446 1.485 2.213 2.47 0.462 0.595 2.768 3.634 2.768 5.091 0 1.195-1.352 2.027-2.782 2.906-0.554 0.339-1.125 0.691-1.538 1.022-0.442 0.354-0.52 0.541-0.533 0.582 1.518 3.786 6.16 8.427 9.944 9.944 0.034-0.011 0.221-0.085 0.581-0.533 0.331-0.413 0.683-0.986 1.022-1.538 0.88-1.43 1.71-2.782 2.906-2.782 1.458 0 4.496 2.306 5.091 2.768 0.986 0.766 1.84 1.533 2.47 2.213 0.845 0.912 1.238 1.618 1.238 2.219 0 1.21-1.138 2.878-2.11 3.941-0.678 0.739-2.453 2.459-4.29 2.459zM6.39 1.6c-0.429 0.008-1.582 0.533-2.837 1.688-1.19 1.098-1.931 2.29-1.931 3.112 0 10.766 13.222 24 23.978 24 0.821 0 2.013-0.744 3.11-1.941 1.157-1.261 1.682-2.419 1.69-2.85-0.051-0.304-0.893-1.486-3.195-3.259-1.979-1.523-3.584-2.341-3.997-2.35-0.029 0.008-0.208 0.077-0.571 0.538-0.315 0.402-0.653 0.95-0.981 1.482-0.896 1.458-1.742 2.835-2.973 2.835-0.198 0-0.394-0.038-0.581-0.114-4.2-1.68-9.166-6.646-10.846-10.846-0.202-0.504-0.234-1.294 0.758-2.194 0.528-0.478 1.258-0.926 1.965-1.362 0.531-0.326 1.082-0.664 1.482-0.981 0.461-0.363 0.53-0.542 0.538-0.571-0.011-0.413-0.827-2.018-2.35-3.997-1.773-2.302-2.955-3.142-3.259-3.195z"></path>
</symbol>
<symbol id="icon-tag" viewBox="0 0 32 32">
<path d="M12 30.536c-0.642 0-1.245-0.25-1.698-0.701l-8.138-8.138c-0.453-0.453-0.701-1.054-0.701-1.698s0.25-1.245 0.701-1.698l13.738-13.738c0.779-0.779 2.195-1.366 3.298-1.366h7.2c1.323 0 2.4 1.077 2.4 2.4v7.2c0 1.101-0.587 2.518-1.365 3.298l-13.738 13.738c-0.453 0.453-1.054 0.701-1.698 0.701zM19.2 4.8c-0.664 0-1.696 0.427-2.165 0.898l-13.738 13.738c-0.15 0.15-0.232 0.35-0.232 0.566s0.083 0.416 0.232 0.565l8.138 8.138c0.15 0.15 0.35 0.232 0.566 0.232s0.416-0.083 0.566-0.232l13.738-13.738c0.469-0.469 0.898-1.502 0.898-2.166v-7.2c0-0.442-0.358-0.8-0.8-0.8h-7.2z"></path>
<path d="M23.2 11.2c-1.323 0-2.4-1.077-2.4-2.4s1.077-2.4 2.4-2.4 2.4 1.077 2.4 2.4-1.077 2.4-2.4 2.4zM23.2 8c-0.442 0-0.8 0.358-0.8 0.8s0.358 0.8 0.8 0.8 0.8-0.358 0.8-0.8-0.358-0.8-0.8-0.8z"></path>
</symbol>
<symbol id="icon-user" viewBox="0 0 32 32">
<path d="M15.2 17.6c-4.853 0-8.8-3.947-8.8-8.8s3.947-8.8 8.8-8.8 8.8 3.947 8.8 8.8-3.947 8.8-8.8 8.8zM15.2 1.6c-3.97 0-7.2 3.23-7.2 7.2s3.23 7.2 7.2 7.2c3.97 0 7.2-3.23 7.2-7.2s-3.23-7.2-7.2-7.2z"></path>
<path d="M28 32h-25.6c-1.323 0-2.4-1.077-2.4-2.4 0-0.109 0.022-2.696 1.96-5.28 1.128-1.504 2.672-2.699 4.59-3.55 2.342-1.042 5.253-1.57 8.65-1.57s6.307 0.528 8.65 1.57c1.918 0.853 3.462 2.046 4.59 3.55 1.938 2.584 1.96 5.171 1.96 5.28 0 1.323-1.077 2.4-2.4 2.4zM15.2 20.8c-5.579 0-9.696 1.525-11.906 4.41-1.656 2.162-1.693 4.371-1.694 4.394 0 0.438 0.358 0.797 0.8 0.797h25.6c0.442 0 0.8-0.358 0.8-0.8 0-0.019-0.037-2.229-1.694-4.39-2.211-2.885-6.328-4.41-11.906-4.41z"></path>
</symbol>
</defs>
</svg>
