<svg xmlns="http://www.w3.org/2000/svg" width="34.402" height="31.156" viewBox="0 0 34.402 31.156">
  <g id="Heart-like" fill="#fff">
    <path d="M 17.20080184936523 29.94799041748047 C 13.12277030944824 27.16063690185547 9.747605323791504 24.3560962677002 7.162801742553711 21.60628700256348 C 4.766171932220459 19.05666732788086 3.040631771087646 16.54876708984375 2.034111738204956 14.15226745605469 C 0.1664218455553055 9.703787803649902 1.162691831588745 6.681387424468994 2.327351808547974 4.929267406463623 C 3.938381910324097 2.50560736656189 6.882091999053955 1.000007390975952 10.00971221923828 1.000007390975952 C 12.60024166107178 1.000007390975952 14.88039207458496 2.032157421112061 16.43014144897461 3.906337261199951 L 17.20080184936523 4.838327407836914 L 17.97146224975586 3.906337261199951 C 19.52121162414551 2.032157421112061 21.80136108398438 1.000007390975952 24.39189147949219 1.000007390975952 C 27.51983261108398 1.000007390975952 30.46367263793945 2.505507230758667 32.07459259033203 4.92899751663208 C 33.23918151855469 6.681027412414551 34.2353401184082 9.703397750854492 32.3674430847168 14.15238761901855 C 31.36097145080566 16.54876708984375 29.63543128967285 19.05666732788086 27.23880195617676 21.60628700256348 C 24.65399742126465 24.3560962677002 21.27883338928223 27.16063690185547 17.20080184936523 29.94799041748047 Z" stroke="none"/>
    <path d="M 17.20080184936523 28.73347091674805 C 20.96643257141113 26.11581420898438 24.09435844421387 23.49141502380371 26.51017189025879 20.92137718200684 C 28.82484245300293 18.45894813537598 30.48532104492188 16.05120658874512 31.44541168212891 13.76526737213135 C 32.78815078735352 10.56711769104004 32.71774291992188 7.703007221221924 31.24179267883301 5.482567310333252 C 30.53742218017578 4.42290735244751 29.51937103271484 3.53862738609314 28.29770278930664 2.925337314605713 C 27.09185218811035 2.319977283477783 25.74124145507813 2.000007390975952 24.39189147949219 2.000007390975952 C 22.10490226745605 2.000007390975952 20.09843254089355 2.903337240219116 18.74211120605469 4.543587207794189 L 17.20080184936523 6.407567501068115 L 15.65949153900146 4.543587207794189 C 14.30317211151123 2.903337240219116 12.29670143127441 2.000007390975952 10.00971221923828 2.000007390975952 C 8.660561561584473 2.000007390975952 7.310081958770752 2.32000732421875 6.104281902313232 2.925407409667969 C 4.882631778717041 3.53875732421875 3.864571809768677 4.423107147216797 3.160151958465576 5.482837200164795 C 1.684111833572388 7.703417301177979 1.613581895828247 10.56742763519287 2.956101894378662 13.76503753662109 C 3.916281938552856 16.05120658874512 5.576761722564697 18.45894813537598 7.89143180847168 20.92137718200684 C 10.30724620819092 23.49141502380371 13.43517017364502 26.11581420898438 17.20080184936523 28.73347091674805 M 17.20080184936523 31.15616798400879 C 7.952041625976563 24.93530654907227 3.101431846618652 19.27598762512207 1.112131834030151 14.53949737548828 C -2.622955083847046 5.643249034881592 3.737429857254028 4.060058472532546e-06 10.00971221923828 4.060058472532546e-06 C 12.68675327301025 4.060058472532546e-06 15.34737205505371 1.027657628059387 17.20080184936523 3.269087314605713 C 19.05385398864746 1.028114914894104 21.71540260314941 4.060058472532546e-06 24.39189147949219 4.060058472532546e-06 C 30.66470527648926 4.060058472532546e-06 37.02488327026367 5.64247465133667 33.28947067260742 14.53949737548828 C 31.3001708984375 19.27598762512207 26.44956207275391 24.93530654907227 17.20080184936523 31.15616798400879 Z" stroke="none" fill="#0e0e0d"/>
  </g>
</svg>
