<?xml version="1.0" encoding="utf-8"?>
<!-- Generator: Adobe Illustrator 25.2.3, SVG Export Plug-In . SVG Version: 6.00 Build 0)  -->
<svg version="1.1" id="Layer_1" xmlns="http://www.w3.org/2000/svg" xmlns:xlink="http://www.w3.org/1999/xlink" x="0px" y="0px"
	 viewBox="0 0 22 16" style="enable-background:new 0 0 22 16;" xml:space="preserve">
<style type="text/css">
	.st0{fill:#0E0E0D;}
</style>
<g id="Menu-hamburguer" transform="translate(-35 -70)">
	<g id="Line_1">
		<g>
			<path class="st0" d="M56.3,72.2h-20c-0.6,0-1-0.4-1-1s0.4-1,1-1h20c0.6,0,1,0.4,1,1S56.9,72.2,56.3,72.2z"/>
		</g>
	</g>
	<g id="Line_2">
		<g>
			<path class="st0" d="M56.3,79.2h-20c-0.6,0-1-0.4-1-1s0.4-1,1-1h20c0.6,0,1,0.4,1,1S56.9,79.2,56.3,79.2z"/>
		</g>
	</g>
	<g id="Line_3">
		<g>
			<path class="st0" d="M47.3,86.2h-11c-0.6,0-1-0.4-1-1s0.4-1,1-1h11c0.6,0,1,0.4,1,1S47.9,86.2,47.3,86.2z"/>
		</g>
	</g>
</g>
</svg>
