<svg xmlns="http://www.w3.org/2000/svg" width="23.481" height="23.475" viewBox="0 0 23.481 23.475">
  <path id="phone" d="M21.083,23.4h-.131C5.82,22.527,3.672,9.759,3.372,5.862A2.31,2.31,0,0,1,5.5,3.375H9.74a1.54,1.54,0,0,1,1.433.97l1.17,2.88A1.54,1.54,0,0,1,12,8.889l-1.64,1.656A7.215,7.215,0,0,0,16.2,16.4l1.671-1.656a1.54,1.54,0,0,1,1.671-.316l2.9,1.163a1.54,1.54,0,0,1,.948,1.432v4.066A2.31,2.31,0,0,1,21.083,23.4ZM5.682,4.915a.77.77,0,0,0-.77.77v.062c.355,4.559,2.626,15.34,16.125,16.11a.77.77,0,0,0,.817-.724V17.021l-2.9-1.163-2.21,2.195-.37-.047c-6.7-.839-7.608-7.539-7.608-7.608l-.047-.37L10.9,7.817l-1.155-2.9Z" transform="translate(1.162 -3.955) rotate(11)" fill="#105c93"/>
</svg>
