<svg xmlns="http://www.w3.org/2000/svg" width="8.696" height="8.153" viewBox="0 0 8.696 8.153">
  <path id="stars" d="M1.56,8.921a.288.288,0,0,0,.406.322L4.351,8.018,6.736,9.244a.288.288,0,0,0,.406-.322L6.691,6.351,8.606,4.527a.3.3,0,0,0-.154-.516L5.79,3.633,4.6,1.281a.279.279,0,0,0-.5,0L2.912,3.633.25,4.012A.3.3,0,0,0,.1,4.528L2.011,6.352,1.56,8.922Zm2.666-1.5-2,1.029L2.6,6.3a.307.307,0,0,0-.089-.274L.932,4.516l2.2-.313a.285.285,0,0,0,.214-.157l1-1.988,1,1.988a.285.285,0,0,0,.214.157l2.2.313L6.191,6.021A.307.307,0,0,0,6.1,6.3l.377,2.15-2-1.029a.273.273,0,0,0-.25,0Z" transform="translate(-0.003 -1.122)" fill="#2963c6" fill-rule="evenodd"/>
</svg>
